<svg t="1582271918841" class="icon" viewBox="0 0 1024 1024" version="1.1" xmlns="http://www.w3.org/2000/svg" p-id="2577" width="400" height="400"><path d="M127.921872 496.895219l23.542624 6.458596-22.917599 10.000407v77.711495l13.542218 7.708647-13.542218 11.042116v80.419939s269.17762 92.712106 549.189013 76.878128L895.869786 617.316785v-80.419939l-15.625635-9.167039 14.375585-15.625636v-83.336724l-17.709054-0.416684 16.875686-17.084029v-83.336724s-266.677518 10.417091-522.937945-72.919634L127.921872 416.47528v80.419939z" fill="#bfbfbf" p-id="2578"></path><path d="M157.089725 424.808952c2.500102 1.875076 180.007325 42.293388 261.052289 53.543846l-1.250051 49.793692c-50.62706-9.583723-211.258596-38.126551-258.552187-56.668972l-1.250051-46.668566zM492.311699 325.846592l-158.548118 111.462869c-30.417904-5.208545-101.25412-24.584334-131.672025-35.209766l165.423398-112.921262s57.293998 22.084232 124.796745 36.668159z" fill="#bfbfbf" p-id="2579"></path><path d="M416.058596 478.144456c74.378026 10.417091 160.839878 20.000814 231.467752 14.583927l209.175178-135.213836v44.376806l-209.175178 140.839064s-110.004476 0.625025-231.467752-14.583927v-50.002034z" fill="#bfbfbf" p-id="2580"></path><path d="M416.891963 581.481994c74.169685 10.417091 163.131638 18.750763 233.967854 13.333876l207.508443-133.755443v44.376806l-207.508443 139.17233s-109.171109-1.666734-233.967854-16.04232v-47.085249z" fill="#bfbfbf" p-id="2581"></path><path d="M431.684232 679.194303c77.711495 9.792065 158.548118 18.959105 232.926144 12.917192l193.966226-125.838453v44.376805l-193.966226 131.255341s-104.587589-1.666734-232.926144-15.625636V679.194303zM799.407528 357.514547L637.525941 461.268769s-104.587589-1.666734-195.63296-11.875483l161.881587-109.379451c43.75178 8.125331 195.63296 17.500712 195.63296 17.500712z" fill="#bfbfbf" p-id="2582"></path><path d="M465.435605 336.472024L354.181078 411.058393c-0.208342 0 20.000814-59.377416 111.254527-74.586369zM473.144252 438.767854l121.463276-82.086674c16.667345 74.586368-121.463276 82.086673-121.463276 82.086674z" fill="#bfbfbf" p-id="2583"></path><path d="M157.089725 527.938149c2.500102 1.875076 180.007325 42.293388 261.052289 53.543845l-1.250051 47.085249c-50.62706-9.583723-211.258596-35.418108-258.552187-53.960529l-1.250051-46.668565zM157.089725 623.983723c2.500102 1.875076 197.091353 44.376806 278.34466 55.835606l-1.250051 47.085249c-50.62706-9.583723-228.550966-37.501526-275.636216-56.043947l-1.458393-46.876908z" fill="#bfbfbf" p-id="2584"></path></svg>